<svg xmlns="http://www.w3.org/2000/svg" width="16px" height="16px" viewBox="0 0 2048 2048">
    <g transform="scale(1)">
        <path fill-opacity="0.7" transform="translate(450.56, 1801.76) rotate(180) scale(-1, 1)" fill="#AFB1B3"
              d="M410 678v-442h196q141 0 197.5 48t56.5 167q0 121 -59 174t-195 53h-196zM410 1260v-347h196q112 0 159.5 40t47.5 132t-48.5 133.5t-158.5 41.5h-196zM125 1495h481q249 0 374.5 -94.5t125.5 -282.5q0 -144 -74 -225t-217 -94q171 -17 257.5 -115t86.5 -274 q0 -216 -130 -313t-423 -97h-481v1495z"/>
    </g>
</svg>