<svg width="16" height="16" viewBox="0 0 16 16" fill="none" xmlns="http://www.w3.org/2000/svg">
<path fill-rule="evenodd" clip-rule="evenodd" d="M9.95564 3.42086C9.9847 3.28517 10 3.14437 10 3C10 1.89543 9.10457 1 8 1C6.89543 1 6 1.89543 6 3C6 3.14437 6.0153 3.28517 6.04436 3.42086L4.10296 4.83136C3.78679 4.62195 3.40764 4.5 3 4.5C1.89543 4.5 1 5.39543 1 6.5C1 7.60457 1.89543 8.5 3 8.5C3.01949 8.5 3.03892 8.49972 3.05828 8.49917L3.7015 10.4788C3.27217 10.8456 3 11.391 3 12C3 13.1046 3.89543 14 5 14C5.79902 14 6.48861 13.5314 6.80898 12.8541H9.19102C9.51139 13.5314 10.201 14 11 14C12.1046 14 13 13.1046 13 12C13 11.391 12.7278 10.8456 12.2985 10.4788L12.9417 8.49917C12.9611 8.49972 12.9805 8.5 13 8.5C14.1046 8.5 15 7.60457 15 6.5C15 5.39543 14.1046 4.5 13 4.5C12.5924 4.5 12.2132 4.62195 11.897 4.83136L9.95564 3.42086ZM6.5016 4.32472C6.86803 4.73888 7.40352 5 8 5C8.59648 5 9.13197 4.73888 9.4984 4.32472L11.2244 5.57871C11.081 5.85443 11 6.16776 11 6.5C11 7.23225 11.3935 7.87259 11.9806 8.22107L11.3902 10.0381C11.264 10.0131 11.1335 10 11 10C9.9445 10 9.07996 10.8176 9.00524 11.8541H6.99476C6.92004 10.8176 6.0555 10 5 10C4.86646 10 4.73598 10.0131 4.60976 10.0381L4.01939 8.22107C4.60648 7.87259 5 7.23225 5 6.5C5 6.16776 4.91899 5.85443 4.77563 5.57871L6.5016 4.32472Z" fill="#CED0D6" fill-opacity="0.8"/>
</svg>
