<?xml version="1.0" encoding="utf-8"?>
<svg version="1.0" xmlns="http://www.w3.org/2000/svg" width="16" height="16" viewBox="0 0 16 16" style=""
     preserveAspectRatio="xMidYMid meet">
    <g fill="#CED0D6">
        <path d="M 3.000 9.000 L 3.000 16.000 7.345 16.000 C 12.668 16.000 15.000 13.789 15.000 8.743 C 15.000 3.903 12.864 2.000 7.429 2.000 L 3.000 2.000 3.000 9.000 M 10.000 4.000 C 10.000 4.550 9.550 5.000 9.000 5.000 C 8.450 5.000 8.000 6.800 8.000 9.000 C 8.000 11.444 8.467 13.000 9.200 13.000 C 10.081 13.000 10.104 13.296 9.287 14.113 C 8.675 14.725 7.685 14.923 7.087 14.554 C 5.916 13.830 5.566 4.768 6.667 3.667 C 7.689 2.644 10.000 2.875 10.000 4.000 "/>
    </g>

</svg>
